<svg xmlns="http://www.w3.org/2000/svg" version="1.1" xmlns:xlink="http://www.w3.org/1999/xlink" width="1000" height="1000"><g clip-path="url(#SvgjsClipPath1010)"><rect width="1000" height="1000" fill="#ffffff"></rect><g transform="matrix(29.166666666666668,0,0,29.166666666666668,150,150)"><svg xmlns="http://www.w3.org/2000/svg" version="1.1" xmlns:xlink="http://www.w3.org/1999/xlink" width="24" height="24"><svg xmlns="http://www.w3.org/2000/svg" width="24" height="24" viewBox="0 0 24 24" fill="none" stroke="currentColor" stroke-width="2" stroke-linecap="round" stroke-linejoin="round" class="lucide lucide-swords-icon lucide-swords"><polyline points="14.5 17.5 3 6 3 3 6 3 17.5 14.5"></polyline><line x1="13" x2="19" y1="19" y2="13"></line><line x1="16" x2="20" y1="16" y2="20"></line><line x1="19" x2="21" y1="21" y2="19"></line><polyline points="14.5 6.5 18 3 21 3 21 6 17.5 9.5"></polyline><line x1="5" x2="9" y1="14" y2="18"></line><line x1="7" x2="4" y1="17" y2="20"></line><line x1="3" x2="5" y1="19" y2="21"></line></svg></svg></g></g><defs><clipPath id="SvgjsClipPath1010"><rect width="1000" height="1000" x="0" y="0" rx="350" ry="350"></rect></clipPath></defs></svg>